<svg xmlns="http://www.w3.org/2000/svg" version="1.1" viewBox="416.6 408 1086.4 263">
  <defs>
    
  </defs>
  
  <g>
    <g id="Layer_1">
      <g>
        <g>
          <path fill="#D91F5C" d="M591.63,562.11v37.5c-23.8,0-45.57-8.92-62.11-23.59,8.13-10.16,14.53-21.77,18.77-34.35,10.32,12.48,25.92,20.44,43.34,20.44Z"></path>
          <path fill="#D91F5C" d="M535.38,505.86c0,21.06-6.98,40.52-18.75,56.19-17.11,22.79-44.36,37.56-75,37.56v-37.5c31.02,0,56.25-25.23,56.25-56.25h37.5Z"></path>
          <rect fill="#D91F5C" x="497.88" y="449.61" width="37.5" height="37.5"></rect>
        </g>
        <g>
          <path fill="#17243B" d="M692.18,438.41c-1.52-1.44-3.28-2.6-5.28-3.48-2-.88-4.2-1.32-6.6-1.32s-4.6.44-6.6,1.32c-2,.88-3.76,2.04-5.28,3.48-1.52,1.44-2.68,3.16-3.48,5.16-.8,2-1.2,4.12-1.2,6.36,0,2.4.4,4.6,1.2,6.6.8,2,1.96,3.76,3.48,5.28,1.52,1.52,3.28,2.68,5.28,3.48,2,.8,4.2,1.2,6.6,1.2s4.6-.4,6.6-1.2c2-.8,3.76-1.96,5.28-3.48,1.52-1.52,2.68-3.28,3.48-5.28.8-2,1.2-4.2,1.2-6.6,0-2.24-.4-4.35-1.2-6.36-.8-2-1.96-3.72-3.48-5.16Z"></path>
          <polygon fill="#17243B" points="666.63 487.11 647.92 487.11 647.92 510.14 666.63 510.14 666.63 599.61 694.46 599.61 694.46 487.11 690.62 487.11 666.63 487.11"></polygon>
          <path fill="#17243B" d="M816.98,497.54c-4-4.08-8.92-7.23-14.75-9.48-5.84-2.24-12.51-3.36-20.03-3.36-4.64,0-8.92.52-12.83,1.56-3.92,1.04-7.4,2.36-10.43,3.96-3.04,1.6-5.56,3.36-7.56,5.28-2,1.92-3.56,3.68-4.68,5.28l-2.16-13.67h-23.99v112.5h27.58l.48-62.61c0-4.16.72-7.92,2.16-11.27,1.44-3.36,3.48-6.19,6.12-8.52,2.64-2.32,5.6-4.08,8.88-5.28,3.28-1.2,6.84-1.8,10.67-1.8,7.83,0,14.03,2.32,18.59,6.96,4.56,4.64,6.84,11.36,6.84,20.15v62.37h27.35v-68.36c0-6.87-1.04-13.19-3.12-18.95-2.08-5.76-5.12-10.67-9.12-14.75Z"></path>
          <path fill="#17243B" d="M928.06,539.28c-4.4-2.32-9.28-4.04-14.63-5.16-5.36-1.12-10.6-2.16-15.71-3.12-3.84-.8-7.16-1.6-9.95-2.4-2.8-.8-5.08-1.68-6.84-2.64-1.76-.96-3.08-2.04-3.96-3.24-.88-1.2-1.32-2.6-1.32-4.2,0-1.92.56-3.6,1.68-5.04,1.12-1.44,2.52-2.64,4.2-3.6,1.68-.96,3.6-1.72,5.76-2.28,2.16-.56,4.35-.84,6.6-.84,2.72,0,5.28.36,7.68,1.08,2.4.72,4.6,1.76,6.6,3.12,2,1.36,3.63,3.04,4.92,5.04,1.28,2,2.08,4.28,2.4,6.84h25.67c-.16-6.39-1.6-11.95-4.32-16.67-2.72-4.71-6.16-8.64-10.31-11.75-4.16-3.12-8.96-5.47-14.39-7.08-5.44-1.6-11.03-2.4-16.79-2.4s-11.12.68-16.55,2.04c-5.44,1.36-10.31,3.48-14.63,6.36-4.32,2.88-7.8,6.56-10.43,11.03-2.64,4.48-3.96,9.83-3.96,16.07,0,5.92,1.24,10.76,3.72,14.51,2.48,3.76,5.64,6.8,9.47,9.12,3.84,2.32,8.11,4.04,12.83,5.16,4.71,1.12,9.24,2.16,13.55,3.12,3.99.64,7.63,1.32,10.91,2.04,3.28.72,6.12,1.6,8.52,2.64,2.4,1.04,4.23,2.36,5.52,3.96,1.28,1.6,1.92,3.6,1.92,6,0,2.08-.56,3.92-1.68,5.52-1.12,1.6-2.56,2.92-4.32,3.96-1.76,1.04-3.8,1.84-6.12,2.4-2.32.56-4.76.84-7.32.84-2.88,0-5.64-.36-8.28-1.08s-5.04-1.84-7.2-3.36c-2.16-1.52-3.96-3.44-5.4-5.76-1.44-2.32-2.32-5.08-2.64-8.28h-25.67c0,6.88,1.32,12.87,3.96,17.99,2.64,5.12,6.15,9.4,10.55,12.83,4.4,3.44,9.39,6,14.99,7.68,5.6,1.68,11.43,2.52,17.51,2.52s12.03-.76,17.87-2.28c5.84-1.52,10.99-3.88,15.47-7.08,4.47-3.2,8.16-7.15,11.03-11.87,2.88-4.71,4.32-10.19,4.32-16.43,0-6.72-1.44-12.03-4.32-15.95-2.88-3.92-6.52-7.04-10.91-9.35Z"></path>
          <path fill="#17243B" d="M1066.97,501.38c-4.96-5.19-10.88-9.27-17.75-12.23-6.88-2.96-14.39-4.44-22.55-4.44-9.44,0-17.31,1.6-23.63,4.8-6.32,3.2-11.24,7.52-14.75,12.95l-1.92-15.35h-24.71v159.27h27.59v-60.69c3.84,4.96,8.83,8.92,14.99,11.87,6.15,2.96,13.87,4.44,23.15,4.44,7.99,0,15.35-1.4,22.07-4.2,6.72-2.8,12.55-6.79,17.51-11.99,4.96-5.19,8.83-11.35,11.63-18.47,2.8-7.11,4.2-14.91,4.2-23.39s-1.4-16.59-4.2-23.87c-2.8-7.28-6.68-13.51-11.63-18.71ZM1053.3,557.15c-1.6,4.16-3.8,7.76-6.6,10.79-2.8,3.04-6.24,5.44-10.31,7.2-4.08,1.76-8.6,2.64-13.55,2.64s-9.52-.88-13.67-2.64c-4.16-1.76-7.72-4.16-10.67-7.2-2.96-3.04-5.28-6.63-6.96-10.79-1.68-4.16-2.52-8.55-2.52-13.19s.84-9.31,2.52-13.55c1.68-4.24,3.99-7.92,6.96-11.03,2.96-3.12,6.51-5.64,10.67-7.56,4.16-1.92,8.71-2.88,13.67-2.88s9.47.96,13.55,2.88c4.08,1.92,7.51,4.44,10.31,7.56,2.8,3.12,5,6.8,6.6,11.03,1.6,4.24,2.4,8.76,2.4,13.55s-.8,9.04-2.4,13.19Z"></path>
          <path fill="#17243B" d="M1131.42,438.41c-1.52-1.44-3.28-2.6-5.28-3.48-2-.88-4.2-1.32-6.6-1.32s-4.6.44-6.6,1.32c-2,.88-3.76,2.04-5.28,3.48-1.52,1.44-2.68,3.16-3.48,5.16-.8,2-1.2,4.12-1.2,6.36,0,2.4.4,4.6,1.2,6.6.8,2,1.96,3.76,3.48,5.28,1.52,1.52,3.28,2.68,5.28,3.48,2,.8,4.2,1.2,6.6,1.2s4.6-.4,6.6-1.2c2-.8,3.76-1.96,5.28-3.48,1.52-1.52,2.68-3.28,3.48-5.28.8-2,1.2-4.2,1.2-6.6,0-2.24-.4-4.35-1.2-6.36-.8-2-1.96-3.72-3.48-5.16Z"></path>
          <polygon fill="#17243B" points="1105.88 487.11 1087.17 487.11 1087.17 510.14 1105.88 510.14 1105.88 599.61 1133.7 599.61 1133.7 487.11 1129.86 487.11 1105.88 487.11"></polygon>
          <path fill="#17243B" d="M1222.16,484.71c-8.8,0-16.23,2-22.31,6-6.08,4-10.55,9.52-13.43,16.55l-2.4-20.15h-24.23v112.5h27.58v-52.29c0-5.76.88-10.91,2.64-15.47,1.76-4.56,4.24-8.47,7.44-11.75,3.2-3.28,7.03-5.8,11.51-7.56,4.48-1.76,9.43-2.64,14.87-2.64,1.12,0,2.28.08,3.48.24,1.2.16,2.04.32,2.52.48v-24.95c-.8-.32-1.88-.56-3.24-.72-1.36-.16-2.84-.24-4.44-.24Z"></path>
          <path fill="#17243B" d="M1335.41,500.42c-5.04-5.04-11.08-8.91-18.11-11.63-7.04-2.72-14.87-4.08-23.51-4.08-9.44,0-17.75,1.64-24.95,4.92-7.2,3.28-13.23,7.64-18.11,13.07-4.88,5.44-8.6,11.68-11.15,18.71-2.56,7.04-3.84,14.39-3.84,22.07s1.24,14.79,3.72,21.83c2.48,7.04,6.12,13.28,10.91,18.71,4.8,5.44,10.79,9.8,17.99,13.07,7.2,3.28,15.43,4.92,24.71,4.92,13.75,0,25.62-3.4,35.62-10.19,9.99-6.8,16.91-16.19,20.75-28.19l-28.06.24c-2.72,4.64-6.28,8.16-10.67,10.55-4.4,2.4-9.64,3.6-15.71,3.6-5.44,0-10.16-.88-14.15-2.64-4-1.76-7.36-4.2-10.07-7.32-2.72-3.12-4.76-6.84-6.12-11.15-.65-2.07-1.14-4.23-1.47-6.48h87.23c.32-1.44.52-2.88.6-4.32.08-1.44.12-3.04.12-4.8,0-8.31-1.36-15.95-4.08-22.91-2.72-6.96-6.6-12.95-11.63-17.99ZM1263.74,532.2c.23-1.01.48-2.01.78-3,1.28-4.24,3.2-7.95,5.76-11.15,2.56-3.2,5.79-5.72,9.71-7.56,3.92-1.84,8.43-2.76,13.55-2.76,3.52,0,6.99.56,10.43,1.68,3.44,1.12,6.55,2.72,9.35,4.8,2.8,2.08,5.12,4.64,6.96,7.68,1.84,3.04,3,6.48,3.48,10.31h-60.03Z"></path>
          <path fill="#17243B" d="M1475.25,512.3c-2.08-5.76-5.12-10.67-9.12-14.75-4-4.08-8.92-7.23-14.75-9.48-5.84-2.24-12.51-3.36-20.03-3.36-4.64,0-8.92.52-12.83,1.56-3.92,1.04-7.4,2.36-10.43,3.96-3.04,1.6-5.56,3.36-7.56,5.28-2,1.92-3.56,3.68-4.68,5.28l-2.16-13.67h-23.99v112.5h27.59l.48-62.61c0-4.16.72-7.92,2.16-11.27,1.44-3.36,3.48-6.19,6.12-8.52,2.64-2.32,5.6-4.08,8.87-5.28,3.28-1.2,6.84-1.8,10.67-1.8,7.83,0,14.03,2.32,18.59,6.96,4.56,4.64,6.84,11.36,6.84,20.15v62.37h27.35v-68.36c0-6.87-1.04-13.19-3.12-18.95Z"></path>
        </g>
      </g>
    </g>
  </g>
</svg>